<?xml version="1.0" encoding="UTF-8"?>
<svg id="Layer_1" data-name="Layer 1" xmlns="http://www.w3.org/2000/svg" viewBox="0 0 1580 900">
  <defs>
    <style>
      .cls-1 {
        fill: #0ccc14;
      }

      .cls-1, .cls-2, .cls-3, .cls-4 {
        stroke-width: 0px;
      }

      .cls-2 {
        fill: #32fe6b;
      }

      .cls-3 {
        fill: #029d59;
      }

      .cls-4 {
        fill: #fff;
      }
    </style>
  </defs>
  <polygon class="cls-3" points="1115.97 267.81 1115.01 607.36 790.58 796.69 791.54 457.14 1115.97 267.81"/>
  <polygon class="cls-1" points="791.54 457.14 790.58 796.69 464.03 607.36 464.99 267.81 791.54 457.14"/>
  <polygon class="cls-2" points="1115.97 267.81 791.54 457.14 464.99 267.81 789.42 78.47 1115.97 267.81"/>
  <path class="cls-4" d="M785.09,433.5l-283.64-165.77,288.82-165.16,41.9,24.49-235.76,134.82,70.91,41.44,223.79-127.97,41.9,24.49-223.79,127.97,87.03,50.86,235.76-134.82,41.9,24.49-288.82,165.16Z"/>
  <path class="cls-4" d="M479.1,600.26v-113.9c0-44.76,24.22-60.99,87.73-23.35l113.53,67.29c23.82,14.12,34.93,10.51,34.93-8.1v-19.06c0-18.61-11.12-35.4-34.93-49.51l-186.17-110.34v-46.09l186.17,110.34c63.52,37.64,87.73,82.58,87.73,127.34v18.17c0,44.76-24.21,60.99-87.73,23.35l-113.53-67.29c-23.82-14.12-34.93-10.51-34.93,8.1v68.25l236.19,139.98v46.09l-288.99-171.27Z"/>
  <path class="cls-4" d="M859.21,634.59v115.91l-49.87,29.56v-313.84l216.35-128.22c59.99-35.55,82.86-18.35,82.86,26.68v46.36c0,45.03-22.87,89.34-82.86,124.9l-166.48,98.67ZM1058.68,393.77c0-18.72-10.5-22.76-32.99-9.42l-166.48,98.67v105.21l166.48-98.67c22.49-13.33,32.99-29.81,32.99-48.53v-47.26Z"/>
</svg>