<svg width="544" height="546" viewBox="0 0 544 546" fill="none" xmlns="http://www.w3.org/2000/svg">
<rect width="544" height="546" fill="black"/>
<path fill-rule="evenodd" clip-rule="evenodd" d="M307.535 165.7C340.208 176.732 365.913 202.601 377.078 235.302C381.552 247.176 384 260.049 384 273.496C384 310.895 365.064 343.854 336.292 363.238C318.039 376.31 295.698 384 271.567 384C264.469 384 256.719 382.768 249.99 381.496L250.015 381.453C250.393 380.777 255.159 372.264 264.312 355.913L305.659 281.791L311.106 272.32L293.176 241.143H264.556C293.209 190.848 307.535 165.7 307.535 165.7Z" fill="#CBFF01"/>
<path fill-rule="evenodd" clip-rule="evenodd" d="M271.567 160C279.82 160 287.176 160.57 294.919 162.277C294.976 162.29 279.53 190.029 248.582 245.496L243.383 254.667L238.341 263.706L232.894 273.177L250.824 304.354H279.536L238.473 376C238.393 376.123 238.324 376.245 238.257 376.361L237.968 376.865C237.308 378.019 236.978 378.595 236.978 378.595C191.986 364.162 160 321.955 160 272C160 210.144 209.95 160 271.567 160Z" fill="#00FFA3"/>
</svg>
